<!-- SVG Sprite -->
<svg width="0" height="0" class="hidden">
    <symbol id="instagram"
            xmlns="http://www.w3.org/2000/svg" fill="none"
            viewBox="0 0 24 24">
        <path d="M17 2H7C4.23858 2 2 4.23858 2 7V17C2 19.7614 4.23858 22 7 22H17C19.7614 22 22 19.7614 22 17V7C22 4.23858 19.7614 2 17 2Z"
              stroke="currentColor" stroke-width="2"
              stroke-linecap="round"
              stroke-linejoin="round"></path>
        <path d="M16 11.3701C16.1234 12.2023 15.9812 13.0523 15.5937 13.7991C15.2062 14.5459 14.5931 15.1515 13.8416 15.5297C13.0901 15.908 12.2384 16.0397 11.4077 15.906C10.5771 15.7723 9.80971 15.3801 9.21479 14.7852C8.61987 14.1903 8.22768 13.4229 8.09402 12.5923C7.96035 11.7616 8.09202 10.91 8.47028 10.1584C8.84854 9.40691 9.45414 8.7938 10.2009 8.4063C10.9477 8.0188 11.7977 7.87665 12.63 8.00006C13.4789 8.12594 14.2648 8.52152 14.8716 9.12836C15.4785 9.73521 15.8741 10.5211 16 11.3701Z"
              stroke="currentColor" stroke-width="2"
              stroke-linecap="round"
              stroke-linejoin="round"></path>
        <path d="M17.5 6.5H17.51" stroke="currentColor"
              stroke-width="2" stroke-linecap="round"
              stroke-linejoin="round"></path>
    </symbol>

    <symbol id="linkedin" xmlns="http://www.w3.org/2000/svg"
            fill="none" viewBox="0 0 24 24">
        <path d="M16 8C17.5913 8 19.1174 8.63214 20.2426 9.75736C21.3679 10.8826 22 12.4087 22 14V21H18V14C18 13.4696 17.7893 12.9609 17.4142 12.5858C17.0391 12.2107 16.5304 12 16 12C15.4696 12 14.9609 12.2107 14.5858 12.5858C14.2107 12.9609 14 13.4696 14 14V21H10V14C10 12.4087 10.6321 10.8826 11.7574 9.75736C12.8826 8.63214 14.4087 8 16 8V8Z"
              stroke="currentColor" stroke-width="2"
              stroke-linecap="round"
              stroke-linejoin="round"></path>
        <path d="M6 9H2V21H6V9Z" stroke="currentColor"
              stroke-width="2" stroke-linecap="round"
              stroke-linejoin="round"></path>
        <path d="M4 6C5.10457 6 6 5.10457 6 4C6 2.89543 5.10457 2 4 2C2.89543 2 2 2.89543 2 4C2 5.10457 2.89543 6 4 6Z"
              stroke="currentColor" stroke-width="2"
              stroke-linecap="round"
              stroke-linejoin="round"></path>
    </symbol>
    <symbol id="medium" xmlns="http://www.w3.org/2000/svg"
            fill="none" viewBox="0 0 195 195">
        <g fill-rule="evenodd">
            <rect fill="currentColor" x="0" y="0"
                  width="195" height="195"></rect>
            <path d="M46.534 65.216c.163-1.608-.45-3.198-1.651-4.28L32.651 46.201V44h37.979L99.986 108.38 125.795 44h36.205v2.201l-10.458 10.027c-.902.687-1.35 1.817-1.163 2.935v73.675c-.187 1.118.26 2.247 1.163 2.935l10.213 10.027V148h-51.372v-2.201l10.58-10.272c1.04-1.04 1.04-1.345 1.04-2.935V73.042l-29.417 74.713h-3.976L54.362 73.042v50.074c-.285 2.105.414 4.224 1.896 5.747l13.76 16.691v2.201H31v-2.201l13.761-16.691c1.472-1.525 2.13-3.659 1.774-5.747V65.216z"
                  fill="#FFFFFF"></path>
        </g>
    </symbol>

    <symbol id="twitter" xmlns="http://www.w3.org/2000/svg"
            fill="none"
            viewBox="0 0 24 20">
        <path d="M23 1.03813C22.0424 1.71361 20.9821 2.23024 19.86 2.56813C19.2577 1.87564 18.4573 1.38482 17.567 1.16206C16.6767 0.939292 15.7395 0.995328 14.8821 1.32259C14.0247 1.64984 13.2884 2.23253 12.773 2.99185C12.2575 3.75116 11.9877 4.65047 12 5.56813V6.56813C10.2426 6.6137 8.50127 6.22394 6.93101 5.43358C5.36074 4.64321 4.01032 3.47677 3 2.03813C3 2.03813 -1 11.0381 8 15.0381C5.94053 16.4361 3.48716 17.1371 1 17.0381C10 22.0381 21 17.0381 21 5.53813C20.9991 5.25959 20.9723 4.98173 20.92 4.70813C21.9406 3.70163 22.6608 2.43084 23 1.03813V1.03813Z"
              stroke="currentColor" stroke-width="2"
              stroke-linecap="round"
              stroke-linejoin="round"></path>
    </symbol>

    <symbol id="search" xmlns="http://www.w3.org/2000/svg"
            viewBox="0 0 17 18">
        <path d="M7.08329 13.2501C8.34057 13.2498 9.56161 12.8289 10.552 12.0544L13.6658 15.1682L14.6674 14.1667L11.5536 11.0528C12.3285 10.0623 12.7497 8.84102 12.75 7.58341C12.75 4.45896 10.2077 1.91675 7.08329 1.91675C3.95883 1.91675 1.41663 4.45896 1.41663 7.58341C1.41663 10.7079 3.95883 13.2501 7.08329 13.2501ZM7.08329 3.33341C9.42717 3.33341 11.3333 5.23954 11.3333 7.58341C11.3333 9.92729 9.42717 11.8334 7.08329 11.8334C4.73942 11.8334 2.83329 9.92729 2.83329 7.58341C2.83329 5.23954 4.73942 3.33341 7.08329 3.33341Z"
              fill="currentColor"/>
    </symbol>

    <symbol id="arrow-right"
            xmlns="http://www.w3.org/2000/svg"
            viewBox="0 0 8 16" fill="none">
        <path d="M1.20286 14.8762L1.20289 14.8762C1.38024 15.0487 1.60745 15.1472 1.84632 15.1482C2.00583 15.1585 2.16435 15.1248 2.30882 15.0513C2.45467 14.977 2.58112 14.8647 2.67935 14.7256C2.67938 14.7256 2.67941 14.7256 2.67943 14.7255L6.92897 8.7391L6.92952 8.7383C7.07328 8.53299 7.15 8.2786 7.15 8.01867C7.15 7.759 7.07343 7.50486 6.92994 7.29965C6.9298 7.29945 6.92966 7.29924 6.92952 7.29904L2.8264 1.31541C2.74574 1.19001 2.64284 1.08361 2.523 1.00411C2.40239 0.924097 2.26749 0.873279 2.12675 0.856304C1.98594 0.839321 1.84397 0.856788 1.71023 0.907014C1.57765 0.956802 1.457 1.0373 1.35508 1.1419C1.25423 1.23763 1.17161 1.35441 1.11088 1.4849C1.04965 1.61647 1.01156 1.76006 0.998201 1.90747C0.984842 2.0549 0.9964 2.20409 1.0324 2.34672C1.06836 2.48922 1.12823 2.62317 1.20942 2.74062C1.20949 2.74071 1.20955 2.74081 1.20962 2.7409L4.82179 8.01204L1.07479 13.2748L1.07467 13.275C0.992198 13.3912 0.930867 13.5241 0.893308 13.666C0.855747 13.8078 0.842478 13.9566 0.85405 14.1039C0.865622 14.2513 0.901876 14.3952 0.961295 14.5274C1.02071 14.6597 1.10246 14.7785 1.20286 14.8762Z"
              fill="currentColor" stroke="currentColor"
              stroke-width="0.3"/>
    </symbol>

    <symbol id="coffee" xmlns="http://www.w3.org/2000/svg"
            fill="none" viewBox="0 0 24 24">
        <style>
            .coffee-liquid {
            transform-origin: bottom;
            -webkit-transform-origin: bottom;

            animation: fill 3s ease-in-out infinite;
            -webkit-animation: fill 3s ease-in-out infinite;
            will-change: transform;
            }
            @keyframes fill {
            0% {
            transform: scaleY(0);
            -webkit-transform: scaleY(0);
            }
            100% {
            transform: scaleY(1);
            -webkit-transform: scaleY(1);
            }
            }
            @-webkit-keyframes fill {
            0% {
            -webkit-transform: scaleY(0);
            }
            100% {
            -webkit-transform: scaleY(1);
            }
            }
        </style>
        <path d="M20.2161 6.41496L20.0841 5.74896C19.9651 5.15096 19.6961 4.58596 19.0831 4.36996C18.8861 4.30096 18.6631 4.27196 18.5131 4.12896C18.3611 3.98596 18.3171 3.76296 18.2821 3.55696C18.2171 3.17896 18.1571 2.80096 18.0901 2.42396C18.0331 2.09896 17.9881 1.73396 17.8401 1.43696C17.6451 1.03696 17.2431 0.802961 16.8441 0.648961C16.6393 0.57239 16.4303 0.507617 16.2181 0.454961C15.2181 0.191961 14.1681 0.0949609 13.1411 0.0389609C11.9078 -0.0288453 10.6713 -0.00812547 9.44105 0.100961C8.52605 0.183961 7.56105 0.284961 6.69105 0.600961C6.37305 0.716961 6.04505 0.856961 5.80305 1.10196C5.50605 1.40396 5.41005 1.87196 5.62605 2.24796C5.78005 2.51496 6.04105 2.70396 6.31805 2.82796C6.67805 2.98996 7.05505 3.11196 7.44105 3.19396C8.51605 3.43196 9.63005 3.52496 10.7281 3.56396C11.9461 3.61396 13.1651 3.57396 14.3781 3.44596C14.6771 3.41296 14.9761 3.37296 15.2741 3.32696C15.6261 3.27296 15.8521 2.81396 15.7481 2.49296C15.6241 2.10996 15.2911 1.96196 14.9141 2.01996C14.4481 2.09396 13.9541 2.12796 13.5321 2.16596C12.3551 2.24596 11.1741 2.24796 9.99605 2.17196C9.60952 2.14638 9.22372 2.1107 8.83905 2.06496C8.75305 2.05496 8.65905 2.03996 8.58105 2.02896C8.33805 1.99296 8.09705 1.94896 7.85705 1.89896C7.74605 1.87196 7.74605 1.71396 7.85705 1.68696H7.86205C8.13905 1.62696 8.41905 1.57896 8.70005 1.53996H8.70205C8.83305 1.53096 8.96505 1.50796 9.09605 1.49196C10.234 1.37386 11.3787 1.33376 12.5221 1.37196C13.1961 1.39096 13.8691 1.43896 14.5391 1.51596L14.7671 1.54696C15.0341 1.58696 15.3001 1.63496 15.5651 1.69196C15.9571 1.77696 16.4601 1.80496 16.6351 2.23396C16.6901 2.37096 16.7151 2.52196 16.7461 2.66496L17.0651 4.14896C17.0718 4.18078 17.072 4.21365 17.0655 4.24553C17.059 4.27741 17.046 4.30761 17.0273 4.33425C17.0087 4.36089 16.9847 4.3834 16.957 4.40038C16.9292 4.41737 16.8983 4.42846 16.8661 4.43296H16.8631C16.8261 4.43896 16.7881 4.44296 16.7511 4.44796C15.1781 4.64865 13.5938 4.74719 12.0081 4.74296C10.4369 4.74134 8.86736 4.6398 7.30905 4.43896C7.16905 4.42196 7.01605 4.39696 6.89205 4.37896C6.56605 4.33096 6.24305 4.27096 5.91905 4.21796C5.52605 4.15296 5.15105 4.18596 4.79605 4.37896C4.50605 4.53896 4.26905 4.78296 4.12105 5.07996C3.96705 5.39596 3.92205 5.73996 3.85405 6.07996C3.78505 6.41996 3.67805 6.78696 3.71905 7.13596C3.80605 7.88896 4.33205 8.50096 5.08905 8.63796C8.83252 9.30602 12.6526 9.43265 16.4321 9.01396C16.5039 9.00579 16.5766 9.01384 16.6449 9.03751C16.7131 9.06118 16.7752 9.09987 16.8266 9.15073C16.8779 9.20159 16.9172 9.26333 16.9415 9.33138C16.9658 9.39944 16.9745 9.47208 16.9671 9.54396L16.8961 10.241L15.8781 20.148C15.8371 20.558 15.8311 20.98 15.7531 21.385C15.6311 22.022 15.2001 22.413 14.5711 22.556C13.9941 22.687 13.4061 22.756 12.8151 22.761C12.1591 22.765 11.5051 22.736 10.8491 22.739C10.1501 22.743 9.29305 22.679 8.75405 22.159C8.27905 21.701 8.21405 20.985 8.14905 20.366L7.41805 13.353L7.09605 10.259C7.05905 9.90796 6.81005 9.56396 6.41805 9.58096C6.08205 9.59596 5.70005 9.88096 5.74005 10.26L5.96805 12.445L6.91705 21.557C7.06405 22.901 8.09105 23.625 9.36305 23.829C10.1051 23.949 10.8661 23.973 11.6201 23.985C12.5861 24.001 13.5621 24.038 14.5121 23.863C15.9201 23.605 16.9771 22.665 17.1281 21.206C17.4681 17.874 17.8111 14.543 18.1521 11.211L18.3671 9.12396C18.3776 9.02047 18.4213 8.92315 18.4915 8.84641C18.5618 8.76968 18.6549 8.71762 18.7571 8.69796C19.1591 8.61996 19.5441 8.48596 19.8311 8.17996C20.2861 7.69196 20.3771 7.05696 20.2161 6.41496ZM18.7381 7.18696C18.5931 7.32396 18.3751 7.38796 18.1601 7.41996C15.7441 7.77896 13.2941 7.95996 10.8521 7.87996C9.10405 7.81996 7.37505 7.62596 5.64505 7.38196C5.47505 7.35796 5.29205 7.32696 5.17505 7.20196C4.95505 6.96596 5.06405 6.49196 5.12105 6.20696C5.17305 5.94696 5.27305 5.59796 5.58405 5.56096C6.06805 5.50396 6.63005 5.70896 7.11005 5.78096C7.68705 5.86896 8.26605 5.93996 8.84705 5.99296C11.3271 6.21896 13.8491 6.18296 16.3191 5.85296C16.7691 5.79296 17.2181 5.72296 17.6641 5.64296C18.0631 5.57096 18.5041 5.43696 18.7441 5.84896C18.9101 6.12996 18.9321 6.50596 18.9061 6.82296C18.8982 6.9614 18.8377 7.0916 18.7371 7.18696H18.7381Z"
              fill="currentColor"></path>
        <path class="coffee-liquid"
              d="M9.47012 11.8751C10.7391 11.8751 11.7171 11.4571 12.5791 11.0871C13.3481 10.7581 14.0131 10.4741 14.8391 10.4741C15.2901 10.4783 15.737 10.5588 16.1611 10.7121L15.2211 20.6621C15.1561 21.4421 14.5051 22.0421 13.7221 22.0421C13.7221 22.0421 12.3831 22.1071 11.9361 22.1071C11.5211 22.1071 10.2781 22.0421 10.2781 22.0421C9.49512 22.0421 8.84312 21.4421 8.77812 20.6621L7.90112 11.6581C8.41195 11.8008 8.93973 11.8738 9.47012 11.8751Z"
              fill="#FFDD00">
        </path>
    </symbol>


</svg>
